<mxfile host="Electron" modified="2024-05-10T13:31:27.904Z" agent="Mozilla/5.0 (Windows NT 10.0; Win64; x64) AppleWebKit/537.36 (KHTML, like Gecko) draw.io/24.2.5 Chrome/120.0.6099.109 Electron/28.1.0 Safari/537.36" etag="wrNeX8XriZ8asCVuoxP8" version="24.2.5" type="device">
  <diagram name="第1頁" id="nUrc2rLWpYqeGVDfgoHf">
    <mxGraphModel dx="2022" dy="703" grid="0" gridSize="10" guides="1" tooltips="1" connect="1" arrows="1" fold="1" page="1" pageScale="1" pageWidth="827" pageHeight="1169" math="0" shadow="0">
      <root>
        <mxCell id="0" />
        <mxCell id="1" parent="0" />
        <mxCell id="EJy2oys8HgrrV3kXio68-10" style="edgeStyle=orthogonalEdgeStyle;rounded=0;orthogonalLoop=1;jettySize=auto;html=1;entryX=0.5;entryY=0;entryDx=0;entryDy=0;" edge="1" parent="1" source="EJy2oys8HgrrV3kXio68-1" target="EJy2oys8HgrrV3kXio68-6">
          <mxGeometry relative="1" as="geometry" />
        </mxCell>
        <mxCell id="EJy2oys8HgrrV3kXio68-1" value="使用Traversal" style="rounded=1;whiteSpace=wrap;html=1;fontSize=20;" vertex="1" parent="1">
          <mxGeometry x="-151" y="234" width="120" height="60" as="geometry" />
        </mxCell>
        <mxCell id="EJy2oys8HgrrV3kXio68-9" style="edgeStyle=orthogonalEdgeStyle;rounded=0;orthogonalLoop=1;jettySize=auto;html=1;" edge="1" parent="1" source="EJy2oys8HgrrV3kXio68-2" target="EJy2oys8HgrrV3kXio68-1">
          <mxGeometry relative="1" as="geometry" />
        </mxCell>
        <mxCell id="EJy2oys8HgrrV3kXio68-2" value="找出p和q在tree中的position" style="rounded=1;whiteSpace=wrap;html=1;fontSize=20;" vertex="1" parent="1">
          <mxGeometry x="123.5" y="139" width="291" height="60" as="geometry" />
        </mxCell>
        <mxCell id="EJy2oys8HgrrV3kXio68-8" style="edgeStyle=orthogonalEdgeStyle;rounded=0;orthogonalLoop=1;jettySize=auto;html=1;" edge="1" parent="1" source="EJy2oys8HgrrV3kXio68-3" target="EJy2oys8HgrrV3kXio68-2">
          <mxGeometry relative="1" as="geometry" />
        </mxCell>
        <mxCell id="EJy2oys8HgrrV3kXio68-3" value="找出p和q在tree中的共同的parents，" style="rounded=1;whiteSpace=wrap;html=1;fontSize=24;" vertex="1" parent="1">
          <mxGeometry x="280.5" y="27" width="424" height="60" as="geometry" />
        </mxCell>
        <mxCell id="EJy2oys8HgrrV3kXio68-5" value="Preorder" style="rounded=1;whiteSpace=wrap;html=1;fontSize=20;" vertex="1" parent="1">
          <mxGeometry x="-284" y="328" width="120" height="60" as="geometry" />
        </mxCell>
        <mxCell id="EJy2oys8HgrrV3kXio68-6" value="Inorder" style="rounded=1;whiteSpace=wrap;html=1;fontSize=20;" vertex="1" parent="1">
          <mxGeometry x="-151.5" y="328" width="120" height="60" as="geometry" />
        </mxCell>
        <mxCell id="EJy2oys8HgrrV3kXio68-7" value="Postorder" style="rounded=1;whiteSpace=wrap;html=1;fontSize=20;" vertex="1" parent="1">
          <mxGeometry x="-18" y="328" width="120" height="60" as="geometry" />
        </mxCell>
      </root>
    </mxGraphModel>
  </diagram>
</mxfile>
